<svg viewBox="0 0 24 24" xmlns="http://www.w3.org/2000/svg" xmlns:xlink="http://www.w3.org/1999/xlink" width="24.000000" height="24.000000" fill="none">
	<rect id="mail" width="24.000000" height="24.000000" x="0.000000" y="0.000000" />
	<path id="Vector" d="M0 0L24 0L24 24L0 24L0 0Z" fill-rule="nonzero" />
	<path id="Vector" d="M22 6C22 4.9 21.1 4 20 4L4 4C2.9 4 2 4.9 2 6L2 18C2 19.1 2.9 20 4 20L20 20C21.1 20 22 19.1 22 18L22 6ZM20 6L12 10.99L4 6L20 6ZM20 18L4 18L4 8L12 13L20 8L20 18Z" fill="rgb(47,36,31)" fill-rule="nonzero" />
</svg>
