<svg viewBox="0 0 24 24" xmlns="http://www.w3.org/2000/svg" xmlns:xlink="http://www.w3.org/1999/xlink" width="24.000000" height="24.000000" fill="none">
	<rect id="search" width="24.000000" height="24.000000" x="0.000000" y="0.000000" />
	<path id="Vector" d="M0 0L24 0L24 24L0 24L0 0Z" fill-rule="nonzero" />
	<path id="Vector" d="M15.5 14L14.71 14L14.43 13.73C15.63 12.33 16.25 10.42 15.91 8.39002C15.44 5.61002 13.12 3.39002 10.32 3.05002C6.09001 2.53002 2.53002 6.09001 3.05002 10.32C3.39002 13.12 5.61002 15.44 8.39002 15.91C10.42 16.25 12.33 15.63 13.73 14.43L14 14.71L14 15.5L18.25 19.75C18.66 20.16 19.33 20.16 19.74 19.75C20.15 19.34 20.15 18.67 19.74 18.26L15.5 14ZM9.50002 14C7.01002 14 5.00002 11.99 5.00002 9.50002C5.00002 7.01002 7.01002 5.00002 9.50002 5.00002C11.99 5.00002 14 7.01002 14 9.50002C14 11.99 11.99 14 9.50002 14Z" fill="rgb(85,59,51)" fill-rule="nonzero" />
</svg>
